<?xml version="1.0" encoding="UTF-8" standalone="no"?><svg xmlns="http://www.w3.org/2000/svg" xmlns:xlink="http://www.w3.org/1999/xlink" contentStyleType="text/css" height="606px" preserveAspectRatio="none" style="width:948px;height:606px;background:#FFFFFF;" version="1.1" viewBox="0 0 948 606" width="948px" zoomAndPan="magnify"><defs/><g><!--MD5=[e73183ae97ca62d81f0bf19921e7c95e]
class Prenda--><g id="elem_Prenda"><rect codeLine="1" fill="#F1F1F1" height="113.1875" id="Prenda" rx="2.5" ry="2.5" style="stroke:#181818;stroke-width:0.5;" width="99" x="240" y="366"/><ellipse cx="263.1" cy="382" fill="#ADD1B2" rx="11" ry="11" style="stroke:#181818;stroke-width:1.0;"/><path d="M266.0688,387.6406 Q265.4906,387.9375 264.85,388.0781 Q264.2094,388.2344 263.5063,388.2344 Q261.0063,388.2344 259.6781,386.5938 Q258.3656,384.9375 258.3656,381.8125 Q258.3656,378.6875 259.6781,377.0313 Q261.0063,375.375 263.5063,375.375 Q264.2094,375.375 264.85,375.5313 Q265.5063,375.6875 266.0688,375.9844 L266.0688,378.7031 Q265.4438,378.125 264.85,377.8594 Q264.2563,377.5781 263.6313,377.5781 Q262.2875,377.5781 261.6,378.6563 Q260.9125,379.7188 260.9125,381.8125 Q260.9125,383.9063 261.6,384.9844 Q262.2875,386.0469 263.6313,386.0469 Q264.2563,386.0469 264.85,385.7813 Q265.4438,385.5 266.0688,384.9219 L266.0688,387.6406 Z " fill="#000000"/><text fill="#000000" font-family="sans-serif" font-size="14" lengthAdjust="spacing" textLength="49" x="278.9" y="386.8467">Prenda</text><line style="stroke:#181818;stroke-width:0.5;" x1="241" x2="338" y1="398" y2="398"/><text fill="#000000" font-family="sans-serif" font-size="14" lengthAdjust="spacing" textLength="78" x="246" y="414.9951">precioBase</text><text fill="#000000" font-family="sans-serif" font-size="14" lengthAdjust="spacing" textLength="26" x="246" y="431.292">tipo</text><text fill="#000000" font-family="sans-serif" font-size="14" lengthAdjust="spacing" textLength="48" x="246" y="447.5889">estado</text><line style="stroke:#181818;stroke-width:0.5;" x1="241" x2="338" y1="454.8906" y2="454.8906"/><text fill="#000000" font-family="sans-serif" font-size="14" lengthAdjust="spacing" textLength="87" x="246" y="471.8857">precioTotal()</text></g><g id="elem_nuevo"><rect fill="#F1F1F1" height="44.5938" style="stroke:#181818;stroke-width:0.5;" width="165" x="7" y="547"/><text fill="#000000" font-family="sans-serif" font-size="14" lengthAdjust="spacing" textLength="43" x="68" y="561.9951">nuevo</text><line style="stroke:#181818;stroke-width:0.5;" x1="8" x2="171" y1="567.2969" y2="567.2969"/><text fill="#000000" font-family="sans-serif" font-size="14" lengthAdjust="spacing" textLength="153" x="13" y="584.292">darPrecio(precioBase)</text></g><g id="elem_promocion"><rect fill="#F1F1F1" height="60.8906" style="stroke:#181818;stroke-width:0.5;" width="165" x="207" y="539"/><text fill="#000000" font-family="sans-serif" font-size="14" lengthAdjust="spacing" textLength="74" x="252.5" y="553.9951">promocion</text><line style="stroke:#181818;stroke-width:0.5;" x1="208" x2="371" y1="559.2969" y2="559.2969"/><text fill="#000000" font-family="sans-serif" font-size="14" lengthAdjust="spacing" textLength="55" x="213" y="576.292">valorFijo</text><text fill="#000000" font-family="sans-serif" font-size="14" lengthAdjust="spacing" textLength="153" x="213" y="592.5889">darPrecio(precioBase)</text></g><g id="elem_liquidacion"><rect fill="#F1F1F1" height="44.5938" style="stroke:#181818;stroke-width:0.5;" width="165" x="407" y="547"/><text fill="#000000" font-family="sans-serif" font-size="14" lengthAdjust="spacing" textLength="73" x="453" y="561.9951">liquidacion</text><line style="stroke:#181818;stroke-width:0.5;" x1="408" x2="571" y1="567.2969" y2="567.2969"/><text fill="#000000" font-family="sans-serif" font-size="14" lengthAdjust="spacing" textLength="153" x="413" y="584.292">darPrecio(precioBase)</text></g><!--MD5=[fe4478d9c9a369b28097141e000aa656]
class Venta--><g id="elem_Venta"><rect codeLine="21" fill="#F1F1F1" height="162.0781" id="Venta" rx="2.5" ry="2.5" style="stroke:#181818;stroke-width:0.5;" width="119" x="448" y="144"/><ellipse cx="484.15" cy="160" fill="#ADD1B2" rx="11" ry="11" style="stroke:#181818;stroke-width:1.0;"/><path d="M487.1188,165.6406 Q486.5406,165.9375 485.9,166.0781 Q485.2594,166.2344 484.5563,166.2344 Q482.0563,166.2344 480.7281,164.5938 Q479.4156,162.9375 479.4156,159.8125 Q479.4156,156.6875 480.7281,155.0313 Q482.0563,153.375 484.5563,153.375 Q485.2594,153.375 485.9,153.5313 Q486.5563,153.6875 487.1188,153.9844 L487.1188,156.7031 Q486.4938,156.125 485.9,155.8594 Q485.3063,155.5781 484.6813,155.5781 Q483.3375,155.5781 482.65,156.6563 Q481.9625,157.7188 481.9625,159.8125 Q481.9625,161.9063 482.65,162.9844 Q483.3375,164.0469 484.6813,164.0469 Q485.3063,164.0469 485.9,163.7813 Q486.4938,163.5 487.1188,162.9219 L487.1188,165.6406 Z " fill="#000000"/><text fill="#000000" font-family="sans-serif" font-size="14" lengthAdjust="spacing" textLength="40" x="502.85" y="164.8467">Venta</text><line style="stroke:#181818;stroke-width:0.5;" x1="449" x2="566" y1="176" y2="176"/><text fill="#000000" font-family="sans-serif" font-size="14" lengthAdjust="spacing" textLength="84" x="454" y="192.9951">listaPrendas</text><text fill="#000000" font-family="sans-serif" font-size="14" lengthAdjust="spacing" textLength="59" x="454" y="209.292">cantidad</text><text fill="#000000" font-family="sans-serif" font-size="14" lengthAdjust="spacing" textLength="98" x="454" y="225.5889">fechaDeVenta</text><text fill="#000000" font-family="sans-serif" font-size="14" lengthAdjust="spacing" textLength="86" x="454" y="241.8857">tipoDeVenta</text><text fill="#000000" font-family="sans-serif" font-size="14" lengthAdjust="spacing" textLength="47" x="454" y="258.1826">cuotas</text><text fill="#000000" font-family="sans-serif" font-size="14" lengthAdjust="spacing" textLength="77" x="454" y="274.4795">precioTotal</text><line style="stroke:#181818;stroke-width:0.5;" x1="449" x2="566" y1="281.7813" y2="281.7813"/><text fill="#000000" font-family="sans-serif" font-size="14" lengthAdjust="spacing" textLength="107" x="454" y="298.7764">ventasTotales()</text></g><g id="elem_efectivo"><rect fill="#F1F1F1" height="44.5938" style="stroke:#181818;stroke-width:0.5;" width="266" x="374.5" y="400"/><text fill="#000000" font-family="sans-serif" font-size="14" lengthAdjust="spacing" textLength="54" x="480.5" y="414.9951">efectivo</text><line style="stroke:#181818;stroke-width:0.5;" x1="375.5" x2="639.5" y1="420.2969" y2="420.2969"/><text fill="#000000" font-family="sans-serif" font-size="14" lengthAdjust="spacing" textLength="254" x="380.5" y="437.292">darCantidadTotal(cantidadDeVentas)</text></g><g id="elem_tarjeta"><rect fill="#F1F1F1" height="77.1875" style="stroke:#181818;stroke-width:0.5;" width="266" x="675.5" y="384"/><text fill="#000000" font-family="sans-serif" font-size="14" lengthAdjust="spacing" textLength="43" x="787" y="398.9951">tarjeta</text><line style="stroke:#181818;stroke-width:0.5;" x1="676.5" x2="940.5" y1="404.2969" y2="404.2969"/><text fill="#000000" font-family="sans-serif" font-size="14" lengthAdjust="spacing" textLength="99" x="681.5" y="421.292">coeficineteFijo</text><text fill="#000000" font-family="sans-serif" font-size="14" lengthAdjust="spacing" textLength="47" x="681.5" y="437.5889">cuotas</text><text fill="#000000" font-family="sans-serif" font-size="14" lengthAdjust="spacing" textLength="254" x="681.5" y="453.8857">darCantidadTotal(cantidadDeVentas)</text></g><g id="elem_registro"><rect fill="#F1F1F1" height="77.1875" style="stroke:#181818;stroke-width:0.5;" width="181" x="417" y="7"/><text fill="#000000" font-family="sans-serif" font-size="14" lengthAdjust="spacing" textLength="53" x="481" y="21.9951">registro</text><line style="stroke:#181818;stroke-width:0.5;" x1="418" x2="597" y1="27.2969" y2="27.2969"/><text fill="#000000" font-family="sans-serif" font-size="14" lengthAdjust="spacing" textLength="46" x="423" y="44.292">ventas</text><text fill="#000000" font-family="sans-serif" font-size="14" lengthAdjust="spacing" textLength="149" x="423" y="60.5889">agregarVentas(venta)</text><text fill="#000000" font-family="sans-serif" font-size="14" lengthAdjust="spacing" textLength="169" x="423" y="76.8857">ventasPorDia(unaFecha)</text></g><!--MD5=[8f55fb6bb471cfd96fcaf3cba5dd1696]
link Prenda to nuevo--><g id="link_Prenda_nuevo"><path codeLine="47" d="M239.8,459.53 C203.6,485.78 155.5,520.65 123.57,543.8 " fill="none" id="Prenda-to-nuevo" style="stroke:#181818;stroke-width:1.0;"/><polygon fill="#181818" points="119.37,546.84,129.0004,544.7774,123.4124,543.8974,124.2924,538.3094,119.37,546.84" style="stroke:#181818;stroke-width:1.0;"/></g><!--MD5=[bd3ed5e273fcfa29f8a3e4c648b9ce89]
link Prenda to promocion--><g id="link_Prenda_promocion"><path codeLine="48" d="M289.5,479.15 C289.5,497.37 289.5,517.1 289.5,533.37 " fill="none" id="Prenda-to-promocion" style="stroke:#181818;stroke-width:1.0;"/><polygon fill="#181818" points="289.5,538.75,293.5,529.75,289.5,533.75,285.5,529.75,289.5,538.75" style="stroke:#181818;stroke-width:1.0;"/></g><!--MD5=[549e059a3c566688b8a6cf41c8c490a7]
link Prenda to liquidacion--><g id="link_Prenda_liquidacion"><path codeLine="49" d="M339.19,465.57 C344.96,470.19 350.81,474.75 356.5,479 C387.6,502.26 424.31,526.75 451.28,544.22 " fill="none" id="Prenda-to-liquidacion" style="stroke:#181818;stroke-width:1.0;"/><polygon fill="#181818" points="455.52,546.97,450.1322,538.7255,451.3206,544.2561,445.79,545.4445,455.52,546.97" style="stroke:#181818;stroke-width:1.0;"/></g><!--MD5=[233e03477ff777c95c2f0fa1705e80b8]
link Venta to Prenda--><g id="link_Venta_Prenda"><path codeLine="50" d="M447.93,279.42 C415.1,308.86 374.68,345.11 342.89,373.62 " fill="none" id="Venta-to-Prenda" style="stroke:#181818;stroke-width:1.0;stroke-dasharray:7.0,7.0;"/><polygon fill="#181818" points="339.05,377.06,348.4277,374.0503,342.7799,373.7302,343.1001,368.0824,339.05,377.06" style="stroke:#181818;stroke-width:1.0;"/></g><!--MD5=[0bbaccab555a5b6f646fb62f725edcd8]
link Venta to efectivo--><g id="link_Venta_efectivo"><path codeLine="51" d="M507.5,306.08 C507.5,337.52 507.5,371.47 507.5,394.36 " fill="none" id="Venta-to-efectivo" style="stroke:#181818;stroke-width:1.0;"/><polygon fill="#181818" points="507.5,399.64,511.5,390.64,507.5,394.64,503.5,390.64,507.5,399.64" style="stroke:#181818;stroke-width:1.0;"/></g><!--MD5=[30e702e3b881d81bff998dcbc20e1e61]
link Venta to tarjeta--><g id="link_Venta_tarjeta"><path codeLine="52" d="M567.33,264.86 C619.11,298.49 693.71,346.95 746.2,381.04 " fill="none" id="Venta-to-tarjeta" style="stroke:#181818;stroke-width:1.0;"/><polygon fill="#181818" points="750.58,383.88,745.2249,375.6143,746.3914,381.1495,740.8561,382.3161,750.58,383.88" style="stroke:#181818;stroke-width:1.0;"/></g><!--MD5=[eb16c7a5e068c400e2671608ed14a825]
link registro to Venta--><g id="link_registro_Venta"><path codeLine="53" d="M507.5,84.14 C507.5,100.05 507.5,119.28 507.5,138.32 " fill="none" id="registro-to-Venta" style="stroke:#181818;stroke-width:1.0;stroke-dasharray:7.0,7.0;"/><polygon fill="#181818" points="507.5,143.68,511.5,134.68,507.5,138.68,503.5,134.68,507.5,143.68" style="stroke:#181818;stroke-width:1.0;"/></g><!--MD5=[05a33a69aaed88d3e319ab69b589e026]
@startuml
class Prenda {
  precioBase
  tipo
  estado
  precioTotal()
}

object nuevo{
  darPrecio(precioBase)
}

object promocion{
  valorFijo
  darPrecio(precioBase)
}

object liquidacion{
  darPrecio(precioBase)
}

class Venta{
  listaPrendas
  cantidad
  fechaDeVenta
  tipoDeVenta
  cuotas
  precioTotal
  ventasTotales()
}

object efectivo{
  darCantidadTotal(cantidadDeVentas)
}

object tarjeta{
  coeficineteFijo
  cuotas
  darCantidadTotal(cantidadDeVentas)
}

object registro{
  ventas
  agregarVentas(venta)
  ventasPorDia(unaFecha) 
}

Prenda - -> nuevo
Prenda - -> promocion
Prenda - -> liquidacion
Venta ..> Prenda
Venta - -> efectivo
Venta - -> tarjeta
registro ..> Venta
@enduml

PlantUML version 1.2022.7(Mon Aug 22 17:01:30 UTC 2022)
(GPL source distribution)
Java Runtime: OpenJDK Runtime Environment
JVM: OpenJDK 64-Bit Server VM
Default Encoding: UTF-8
Language: en
Country: null
--></g></svg>